# xmcd
#
# Track frame offsets: 
#        150
#        13978
#        27478
#        40978
#        54478
#        67978
#        79507
#        94979
#        108479
#        121979
#        135479
#        148979
#        159940
#        168940
#        177940
#        191440
#        204940
#        218440
#        231940
#        245440
#        258940
#        272440
#
# Disc length: 3811 seconds
#
# Revision: 0
# Processed by: cddbd v1.5.2PL0 Copyright (c) Steve Scherf et al.
# Submitted via: ExactAudioCopy v1.0b1
#
DISCID=2c0ee116
DTITLE=Robert G. Allen - Multiple Streams Of Internet Income CD8
DYEAR=2003
DGENRE=Business
TTITLE0=How Ordinary People Make Extraordinary Money Online
TTITLE1=How Ordinary People Make Extraordinary Money Online
TTITLE2=How Ordinary People Make Extraordinary Money Online
TTITLE3=How Ordinary People Make Extraordinary Money Online
TTITLE4=How Ordinary People Make Extraordinary Money Online
TTITLE5=How Ordinary People Make Extraordinary Money Online
TTITLE6=How Ordinary People Make Extraordinary Money Online
TTITLE7=How Ordinary People Make Extraordinary Money Online
TTITLE8=How Ordinary People Make Extraordinary Money Online
TTITLE9=How Ordinary People Make Extraordinary Money Online
TTITLE10=How Ordinary People Make Extraordinary Money Online
TTITLE11=How Ordinary People Make Extraordinary Money Online
TTITLE12=How Ordinary People Make Extraordinary Money Online
TTITLE13=How Ordinary People Make Extraordinary Money Online
TTITLE14=How Ordinary People Make Extraordinary Money Online
TTITLE15=How Ordinary People Make Extraordinary Money Online
TTITLE16=How Ordinary People Make Extraordinary Money Online
TTITLE17=How Ordinary People Make Extraordinary Money Online
TTITLE18=How Ordinary People Make Extraordinary Money Online
TTITLE19=How Ordinary People Make Extraordinary Money Online
TTITLE20=How Ordinary People Make Extraordinary Money Online
TTITLE21=How Ordinary People Make Extraordinary Money Online
EXTD=
EXTT0=
EXTT1=
EXTT2=
EXTT3=
EXTT4=
EXTT5=
EXTT6=
EXTT7=
EXTT8=
EXTT9=
EXTT10=
EXTT11=
EXTT12=
EXTT13=
EXTT14=
EXTT15=
EXTT16=
EXTT17=
EXTT18=
EXTT19=
EXTT20=
EXTT21=
PLAYORDER=
